# Alias OBJ Model File
# Exported from SketchUp, (c) 2000-2012 Trimble Navigation Limited
# File units = millimeters

mtllib Untitled2.mtl

g Mesh1 Model

usemtl FrontColor
v 0 100 -50
vt 0 1.9685
vn 0 1 -0
v 0 100 -0
vt 0 0
v 50 100 -0
vt 1.9685 0
v 50 100 -50
vt 1.9685 1.9685
f 1/1/1 2/2/1 3/3/1 4/4/1 

v 0 0 -0
vn -1 0 -0
vt 0 3.93701
vt -1.9685 3.93701
v 0 0 -50
vt -1.9685 0
f 5/2/2 2/5/2 1/6/2 6/7/2 

v 50 0 -0
vn 0 0 1
vt 1.9685 3.93701
f 7/3/3 3/8/3 2/5/3 5/2/3 

vn 1 0 -0
v 50 0 -50
f 7/2/4 8/3/4 4/8/4 3/5/4 

vn 0 -1 -0
vt -1.9685 1.9685
f 7/7/5 5/2/5 6/1/5 8/9/5 

v 0 -100 -0
vt 0 -3.93701
vn 0 0 -1
v 50 -100 -0
vt -1.9685 -3.93701
f 9/10/6 5/2/6 7/7/6 10/11/6 

v 0 -100 -50
vt 1.9685 -3.93701
f 11/12/4 6/3/4 5/2/4 9/10/4 

v -50 0 -50
v -50 -100 -50
f 12/3/6 6/2/6 11/10/6 13/12/6 

v -50 0 50
vt -1.9685 -1.9685
v 50 0 50
vt 1.9685 -1.9685
f 7/3/1 5/2/1 6/1/1 12/9/1 14/13/1 15/14/1 

v -50 -100 50
f 14/3/2 12/7/2 13/11/2 16/12/2 

v 50 -100 50
f 13/4/5 11/1/5 9/2/5 10/7/5 17/13/5 16/14/5 

f 7/2/4 15/7/4 17/11/4 10/10/4 

f 15/3/3 14/7/3 16/11/3 17/12/3 

f 8/7/6 6/2/6 1/5/6 4/6/6 

